<svg xmlns="http://www.w3.org/2000/svg" version="1.1" xlink="http://www.w3.org/1999/xlink" xmlns:svgjs="http://svgjs.com/svgjs" width="100%" height="100%" preserveAspectRatio="xMidYMid meet" viewBox="0.0032022532541304827 0.000014168380403134506 299.9908447265625 91.14180755615234" overflow="visible"><defs id="SvgjsDefs68506"></defs><g id="SvgjsG68507" transform="scale(0.7442585266693674)" opacity="1"><g id="SvgjsG68508" class="7HtToTr_v4" transform="translate(-46.64811218101463, -46.695541697851176) scale(43.116843672992786)" light-content="false" non-strokable="false" fill="#639ed4"><path d="M1.364 2.557l.494-.18v1.541h.352V1.329l.724.434v2.155h.212v-.754l.527.377v.377h.244v-.686l-.251-.162v-.776l-.52-.318v-.321l-.925-.566v-.006l-.006.003-.005-.003v.005l-.498.202v.831l-.63.256v1.541h.282V2.557zm1.782-.328l.356.215v.519l-.356-.233v-.501z"></path></g><g id="SvgjsG68509" class="text" transform="translate(268.6677910082067, 54.89436734941795) scale(1)" light-content="false" fill="#1d2a4d"><path d="M-103.22 -18.26C-104.76 -20.17 -106.82 -21.38 -109.38 -21.9C-107.14 -22.42 -105.32 -23.53 -103.94 -25.21C-102.56 -26.89 -101.86 -29.06 -101.86 -31.71C-101.86 -35.12 -103.02 -37.77 -105.32 -39.65C-107.63 -41.54 -110.93 -42.48 -115.22 -42.48L-133.09 -42.48L-133.09 0L-114.86 0C-110.33 0 -106.87 -1.03 -104.48 -3.1C-102.09 -5.16 -100.9 -7.98 -100.9 -11.55C-100.9 -14.12 -101.67 -16.36 -103.22 -18.26ZM-124.61 -24.67L-124.61 -35.68L-117.09 -35.68C-114.84 -35.68 -113.18 -35.2 -112.09 -34.24C-111.01 -33.27 -110.47 -31.91 -110.47 -30.14C-110.47 -28.38 -111.02 -27.03 -112.12 -26.08C-113.23 -25.14 -114.84 -24.67 -116.97 -24.67ZM-111.37 -8.39C-112.57 -7.41 -114.3 -6.92 -116.54 -6.92L-124.61 -6.92L-124.61 -18.59L-116.61 -18.59C-114.36 -18.59 -112.62 -18.08 -111.4 -17.06C-110.18 -16.03 -109.57 -14.58 -109.57 -12.7C-109.57 -10.81 -110.17 -9.38 -111.37 -8.39Z M-86.46 -35.74L-69.61 -35.74L-69.61 -42.48L-94.94 -42.48L-94.94 0L-69.61 0L-69.61 -6.8L-86.46 -6.8L-86.46 -18.23L-71.42 -18.23L-71.42 -24.73L-86.46 -24.73Z M-28.64 -10.17C-26.87 -13.38 -25.99 -17.09 -25.99 -21.3C-25.99 -25.55 -26.87 -29.27 -28.64 -32.46C-30.4 -35.65 -32.96 -38.12 -36.31 -39.86C-39.66 -41.61 -43.64 -42.48 -48.25 -42.48L-63.36 -42.48L-63.36 0L-48.25 0C-43.64 0 -39.66 -0.89 -36.31 -2.68C-32.96 -4.46 -30.4 -6.96 -28.64 -10.17ZM-38.36 -11.19C-40.86 -8.78 -44.4 -7.58 -48.98 -7.58L-54.87 -7.58L-54.87 -35.08L-48.98 -35.08C-44.4 -35.08 -40.86 -33.87 -38.36 -31.47C-35.85 -29.06 -34.6 -25.67 -34.6 -21.3C-34.6 -16.97 -35.85 -13.6 -38.36 -11.19Z M6.74 -42.48L-19.61 -42.48L-19.61 0L-11.13 0L-11.13 -17.87L3.19 -17.87L3.19 -24.37L-11.13 -24.37L-11.13 -35.74L6.74 -35.74Z M43.17 -40.31C39.94 -42.16 36.34 -43.08 32.37 -43.08C28.4 -43.08 24.8 -42.16 21.57 -40.31C18.34 -38.47 15.79 -35.89 13.93 -32.58C12.06 -29.27 11.13 -25.53 11.13 -21.36C11.13 -17.19 12.06 -13.44 13.93 -10.11C15.79 -6.78 18.34 -4.19 21.57 -2.35C24.8 -0.5 28.4 0.42 32.37 0.42C36.34 0.42 39.94 -0.5 43.17 -2.35C46.4 -4.19 48.95 -6.78 50.81 -10.11C52.68 -13.44 53.61 -17.19 53.61 -21.36C53.61 -25.53 52.68 -29.27 50.81 -32.58C48.95 -35.89 46.4 -38.47 43.17 -40.31ZM25.81 -33.57C27.7 -34.7 29.88 -35.26 32.37 -35.26C34.86 -35.26 37.04 -34.7 38.93 -33.57C40.81 -32.45 42.29 -30.84 43.35 -28.73C44.41 -26.62 44.95 -24.17 44.95 -21.36C44.95 -18.55 44.41 -16.09 43.35 -13.99C42.29 -11.88 40.81 -10.27 38.93 -9.15C37.04 -8.02 34.86 -7.46 32.37 -7.46C29.88 -7.46 27.7 -8.02 25.81 -9.15C23.93 -10.27 22.45 -11.88 21.39 -13.99C20.33 -16.09 19.8 -18.55 19.8 -21.36C19.8 -24.17 20.33 -26.62 21.39 -28.73C22.45 -30.84 23.93 -32.45 25.81 -33.57Z M82.13 0L91.52 0L80.93 -16.97C84.3 -17.69 86.87 -19.13 88.66 -21.3C90.44 -23.47 91.33 -26.15 91.33 -29.36C91.33 -33.29 90.04 -36.46 87.45 -38.87C84.87 -41.28 81.11 -42.48 76.17 -42.48L59.99 -42.48L59.99 0L68.47 0L68.47 -16.55L72.2 -16.55ZM68.47 -22.38L68.47 -35.32L75.45 -35.32C77.94 -35.32 79.77 -34.75 80.96 -33.6C82.14 -32.46 82.73 -30.87 82.73 -28.82C82.73 -24.53 80.3 -22.38 75.45 -22.38Z M131.77 -10.17C133.53 -13.38 134.41 -17.09 134.41 -21.3C134.41 -25.55 133.53 -29.27 131.77 -32.46C130 -35.65 127.45 -38.12 124.1 -39.86C120.75 -41.61 116.77 -42.48 112.15 -42.48L97.05 -42.48L97.05 0L112.15 0C116.77 0 120.75 -0.89 124.1 -2.68C127.45 -4.46 130 -6.96 131.77 -10.17ZM122.05 -11.19C119.54 -8.78 116 -7.58 111.43 -7.58L105.53 -7.58L105.53 -35.08L111.43 -35.08C116 -35.08 119.54 -33.87 122.05 -31.47C124.56 -29.06 125.81 -25.67 125.81 -21.3C125.81 -16.97 124.56 -13.6 122.05 -11.19Z"></path></g><g id="SvgjsG68510" class="text" transform="translate(259.6786602434803, 122.08990848173336) scale(1)" light-content="false" fill="#1d2a4d"><path d="M-87.2 -39.43C-90.74 -42.2 -95.21 -43.58 -100.59 -43.58C-104.74 -43.58 -108.39 -42.66 -111.53 -40.8C-114.66 -38.95 -117.1 -36.35 -118.83 -33.01C-120.56 -29.67 -121.43 -25.86 -121.43 -21.58C-121.43 -17.34 -120.56 -13.55 -118.83 -10.21C-117.1 -6.87 -114.65 -4.27 -111.5 -2.41C-108.34 -0.56 -104.7 0.37 -100.59 0.37C-95.21 0.37 -90.74 -1.02 -87.2 -3.79C-83.65 -6.56 -81.31 -10.33 -80.17 -15.1L-89.22 -15.1C-90.15 -12.78 -91.61 -10.94 -93.59 -9.6C-95.56 -8.25 -97.94 -7.58 -100.71 -7.58C-102.99 -7.58 -105.05 -8.15 -106.88 -9.29C-108.72 -10.43 -110.14 -12.06 -111.16 -14.18C-112.18 -16.3 -112.69 -18.77 -112.69 -21.58C-112.69 -24.43 -112.18 -26.92 -111.16 -29.04C-110.14 -31.15 -108.72 -32.78 -106.88 -33.93C-105.05 -35.07 -102.99 -35.64 -100.71 -35.64C-97.94 -35.64 -95.56 -34.96 -93.59 -33.62C-91.61 -32.28 -90.15 -30.44 -89.22 -28.12L-80.17 -28.12C-81.31 -32.89 -83.65 -36.66 -87.2 -39.43Z M-47.4 -8.68L-44.41 0L-35.3 0L-51.13 -42.67L-60.97 -42.67L-76.87 0L-67.76 0L-64.7 -8.68ZM-49.73 -15.22L-62.44 -15.22L-56.08 -33.44Z M-22.04 -16.02L-14.95 -16.02C-10.01 -16.02 -6.21 -17.24 -3.55 -19.68C-0.88 -22.13 0.46 -25.41 0.46 -29.52C0.46 -33.72 -0.84 -37.04 -3.42 -39.49C-6.01 -41.93 -9.85 -43.16 -14.95 -43.16L-30.66 -43.16L-30.66 0L-22.04 0ZM-8.28 -29.52C-8.28 -25.12 -10.81 -22.92 -15.86 -22.92L-22.04 -22.92L-22.04 -36.19L-15.86 -36.19C-13.17 -36.19 -11.24 -35.62 -10.06 -34.48C-8.87 -33.33 -8.28 -31.68 -8.28 -29.52Z M14.7 -43.16L6.08 -43.16L6.08 0L14.7 0Z M51.87 -43.16L19.47 -43.16L19.47 -36.31L31.33 -36.31L31.33 0L39.95 0L39.95 -36.31L51.87 -36.31Z M82.92 -8.68L85.91 0L95.02 0L79.19 -42.67L69.35 -42.67L53.46 0L62.56 0L65.62 -8.68ZM80.6 -15.22L67.88 -15.22L74.24 -33.44Z M108.29 -6.6L108.29 -43.16L99.67 -43.16L99.67 0L122.77 0L122.77 -6.6Z"></path></g></g></svg>