<svg xmlns="http://www.w3.org/2000/svg" version="1.1" xlink="http://www.w3.org/1999/xlink" xmlns:svgjs="http://svgjs.com/svgjs" width="100%" height="100%" preserveAspectRatio="xMidYMid meet" viewBox="-0.000005641756615659688 0 299.9976806640625 57.01560974121094" overflow="visible"><defs id="SvgjsDefs118800"></defs><g id="SvgjsG118801" transform="scale(0.555730388559199)" opacity="1"><g id="SvgjsG118802" class="muztXVwDb" transform="translate(-9.4341524102012, -11.280663887446936) scale(1.2367792881753024)" light-content="false" non-strokable="false" fill="#639ed4"><path d="M56.148 28.133c.094.313.438 1.188.219 1.563s-1.5 2.218-.219 2.093 2.719-.687 2.188-1.75-1.157-1.937-1.375-2.53-.2-1.157-.2-1.157-.707-.781-1.082-.719c0 0-.718.625-.593 1.188.125.566.968 1 1.062 1.312z"></path><path d="M54.805 30.102c.375-.406.969-2.188-.313-1.844 0 0-1.343 1.531-1.343 1.844s1.28.406 1.656 0z"></path><path d="M90.449 47.395c-.871-11.363-6.34-21.461-14.555-28.426a41.676 41.676 0 0 0-7.48-5.063 41.08 41.08 0 0 0-12.427-4.203 41.654 41.654 0 0 0-6.886-.582c-2.703 0-5.344.27-7.902.766-2.16.418-4.27 1-6.297 1.742a39.594 39.594 0 0 0-3.329 1.395 41.932 41.932 0 0 0-3.543 1.87c-.109.063-.222.126-.328.188-.695.422-1.37.864-2.039 1.32-.254.176-.504.356-.754.536a41.781 41.781 0 0 0-5.172 4.394c-7.476 7.512-12.109 17.855-12.109 29.27 0 .082.008.164.008.246.086 14.375 7.52 27.035 18.73 34.414 1.41.93 2.88 1.774 4.399 2.524a41.21 41.21 0 0 0 18.344 4.289c22.87 0 41.48-18.605 41.48-41.48a43.432 43.432 0 0 0-.14-3.2zm-2 .07c-.223-.047-.422-.011-.563.149-.582.668-2.414-.04-3.331-1.332-.918-1.293-.813-2.395.5-1.586.847.523 1.933 1.512 3.351 2.148.016.207.027.414.043.621zm-3.414-13.19c-.055.1-.106.179-.11.195-.019.062-.437.332-.746.668-.308.336.247.875.809 1.289.563.414.313 1.375.895 2 .585.625.105 2.25-.356 2.48-.46.23-.96-.25-1.875-.543-.918-.293-.168-2.414-.21-2.582-.04-.168-.563-.918-1.02-1.52-.461-.605-.063-.667 0-1.355s1.855-1.52 1.855-1.52c.145-.007.25.005.356.016.144.286.27.578.402.871zM9.672 52.351c1.34.567 2.848.735 3.566.598 1.313-.25.875.812 2.125 1.187s2.25 1.625 3.75 3.188 3.106.836 3.106.836-.168 1.668-.586 2.168c-.414.5-2.664-1-.664 5.75s5 5.75 5.664 6.25c.668.5.086 6.668-.164 9.582-.028.332-.05.648-.07.96-9.684-6.847-16.172-17.921-16.727-30.52zM49.106 90.08a39.248 39.248 0 0 1-17.426-4.066c.043-.07.082-.137.121-.191.668-1 2-.918 2.39-1.418s1.442-1.832 2.774-2.844c1.332-1.012 1.5-3.739 1.75-4.739s2.664-1.75 3.664-2.332.668-3.668.75-4.668c.086-1 1.918-2.5 2.25-3.918.336-1.418-1.914-2.164-3.25-2.664-1.332-.5-2.332-1-4.664-1.25-2.336-.25-1.168-3.086-3.336-3.336-2.164-.25-1.082-.164-2.164-1.164-1.086-1-1.336-1.418-3-1.48-1.668-.067-2.418-.27-3.336-.602-.914-.336-2.664 1.25-2.664 1.25s-.559.528-.715.574-.656-.218-.906-.468-.672.5-1.031.375-.735-1.031-1.172-1.313.187-1.25-.219-2.375-1.812-.187-2.625-.406.531-1.938.906-2.594-.468-.656-1.187-.594-1.094 1.594-2.219 1.47-1.469-.563-1.406-1.47-.906-1.125-.063-3.375 3.531-1.28 4.156-1.593 1.625-.25 2.938.125 1.062 1.75 1.125 2.25.5-1.75.375-3.125 2.062-1.563 3.062-2.438 1.625-2.812 2.125-3.625 1.688-.937 2-1.875 1.797-1.234 2-1.39.516.078.313.562.437.39.937 0 2.332-1.465 1.981-1.754c-.355-.293-.52.293-.895.211s-.687-.418-.855-.812c-.168-.395.25-.543-.105-1s-.73-.645-.27-.98c.457-.333 2.54.167 3.414-.044.875-.21 1-.375.961.043-.039.418-.73 1.414-.98 1.73-.25.313 2.312.626 2.937.626s-.187-1.438-1-1.875.063-1.875-.187-2.797-1.938-2.059-2.106-2.602c-.164-.539-.375-2.25-.707-2.836s-.625.336-.957.75c-.336.414-.918.086-1.125-.164-.21-.25-.21-.293-.293-1.5-.082-1.207-2.332-2.293-3.168-2.336-.832-.043.211 1.586-.082 2.211s-.957.5-.582 1.832-1.418 2.582-2.043 3 .332 2.668-.457 2.543c-.793-.125-1.168-1.375-1.375-1.96-.211-.587.539-.79.457-1.126s-.332 0-.793-.289c-.457-.289-.457-.418-1.125-.625-.664-.207-.332-.586-.707-.96s-1.082-.376-1.457-.376a.182.182 0 0 1-.11-.027 39.779 39.779 0 0 1 6.489-5.793 39.575 39.575 0 0 1 5.746-3.422c-.055.387-.2.719-.5.824-.71.25-.336 1.207-.918 1.29-.582.081-1.625.374-1.793.917-.164.543 1.918.582 2.25.543.336-.039 1.418 1.832 1.96 2.414.54.582 1.5-.625 1.75-1.332.25-.707-.874-2.207-.835-2.625.043-.418 1.5.957 1.5.957s.918-.957 1.168-1.289-.707-.96-1.25-1.543c-.543-.582-.543-.25-.625-1.293v-.039a38.825 38.825 0 0 1 6.547-1.949c.707.613.031 2.844-.586 4.16-.664 1.414-.332 1.914-.164 2.414.164.5 2.086 6.664 3.289 5.332 1.21-1.332 2.5-5.71 3.75-5.793 1.25-.082 1.418-1.21 2.543-1.5 1.125-.289 1.793.082 2.957-.75.89-.636 1.293-2.742 1.914-4.226a39.159 39.159 0 0 1 11.29 3.472c-.255.23-.5.489-.747.797-1.21 1.5-1.586 2.586-2.21 3.918s-2.364 2.52-2.864 3.301-.5 3.188.281 3.188 1.906-1 2.063-.75 1.093 2.187 1.75 2.062 1.906-2.781 1.687-3.969-.125-1.5.156-1.843.157-1.625 1.125-1.688 1.844-.844 1.125.469-.968 1.562-.718 2.125 0 1.531 1.312 1.281 2.188-.156 2.188 0-2 .562-2.47 1.687-.468 1.22-.593 1.907-.844 1.093-.844 1.093l-3.687.594s-.781-.793-1.2-.5c-.414.293-.937.438-1.5.832-.562.395-1.769 1.438-2.019 1.961-.25.52-.875 1.02-1.875 1.27s-1.875.289-1.437.582c.437.293 1.48.73 1.48 1.586s.29 1.562-.168 1.687-2.668-.289-3.082.586a7.203 7.203 0 0 0-.668 2.54c-.043.71-.125 1.374 1.25 1.335 1.375-.043 2.293-.297 2.75-.586.457-.289.332-.871 1.125-1.664s1.043-.457 1.082-1.125c.043-.668-.125-1.375.375-1.25s.961-.46 1.5-.21c.543.25.875-.626 1.711.292.832.918 1.79 1.5 2.04 2.043.25.54 1.124.875.835 1.582-.293.707.875-1.27.813-1.832s-1.188-1.375-1.336-1.605c-.145-.23-.895-1.481-.04-1.188.856.293 2.106 1.48 2.165 1.938.062.46.644 2 1.144 2.625s1.188.855 1.25.832c.063-.02-.355-1.5-.043-2.145s1.02-.918 1.313-.75c.289.168.332.457.668.25.332-.207.77-.418.707-1.043s.125-1.394.293-1.75c.164-.355.73-1.5 1.039-1.02.312.481.644 1.063 1.125 1.083s.394-.563 1.543-.145c1.144.414 3.418 1.21 2.687 1.856s-1.23 1.164-1.894.894c-.668-.27-1.395-.77-2.211-.605-.813.168-3.664.457-3.582 1.5s1.043 2.625 2.668 2.168 2.144-.356 2.332 0 .375 2.668-1.48 2.937c0 0-5.665-.914-6.25-1.082-1.083-.168-.5 1.25-.5 1.582s-4.665-.86-4.665-1.598c0-.738 1.75-2.734-3.086-1.984-4.832.75-6.164 1.7-7.414 3.64s-4.25 2.61-4.086 6.192c.168 3.582-.664 3.918 1.418 5.832 2.082 1.914 2.082 3.582 8 1.914 5.918-1.664 2.332-.133 2.918.684.582.816 1.664.066 1.832.816s-1.168 2.25.168 3.75c1.332 1.5 2.082 5.25 1.332 6.25s.918 3.168.668 5.336 1.625 2.418 1.957 4.043 1.207 3.082 5.293 1c4.082-2.082 2-4.043 3.125-4.543s.461-2.79 1.875-3.664c1.414-.875 3.25-1.336 2.164-5.5-1.082-4.168 1.086-4.164 2.836-5.957 1.75-1.793 4.414-5.668 2.875-5.293-1.543.375-2.75 1.375-4.375-.79-1.625-2.167-6.336-9.374-4.668-8.5s5.625 5.75 5.625 8.376c0 0 1.207.418 4.125-1.75a43.887 43.887 0 0 1 2.266-1.563c-.39 21.422-17.93 38.73-39.453 38.73z"></path></g><g id="SvgjsG118803" class="text" transform="translate(333.6759867535652, 87.92775605255294) scale(1)" light-content="false" fill="#213360"><path d="M-185.44 -24.68C-187.59 -26.29 -190.3 -27.09 -193.57 -27.09C-196.21 -27.09 -198.52 -26.51 -200.53 -25.35C-202.53 -24.18 -204.08 -22.57 -205.18 -20.5C-206.28 -18.44 -206.83 -16.07 -206.83 -13.41C-206.83 -10.75 -206.28 -8.39 -205.18 -6.33C-204.08 -4.26 -202.52 -2.65 -200.51 -1.5C-198.49 -0.35 -196.17 0.23 -193.53 0.23C-191.23 0.23 -189.18 -0.22 -187.4 -1.12C-185.61 -2.02 -184.17 -3.22 -183.06 -4.71C-181.96 -6.21 -181.22 -7.84 -180.84 -9.61L-180.84 -14.78L-194.41 -14.78L-194.41 -10.94L-185.33 -10.94C-185.73 -8.92 -186.62 -7.33 -188 -6.19C-189.39 -5.05 -191.04 -4.48 -192.96 -4.48C-195.57 -4.48 -197.63 -5.27 -199.14 -6.84C-200.65 -8.41 -201.4 -10.6 -201.4 -13.41C-201.4 -15.19 -201.07 -16.73 -200.41 -18.05C-199.75 -19.37 -198.83 -20.38 -197.64 -21.09C-196.45 -21.8 -195.08 -22.15 -193.53 -22.15C-191.96 -22.15 -190.6 -21.79 -189.45 -21.07C-188.3 -20.35 -187.45 -19.38 -186.92 -18.16L-181.3 -18.16C-181.91 -20.9 -183.29 -23.07 -185.44 -24.68Z M-171.46 -28.12L-176.81 -28.12L-176.81 0L-171.46 0Z M-151.33 -20.03C-152.97 -20.89 -154.81 -21.32 -156.86 -21.32C-158.92 -21.32 -160.76 -20.89 -162.39 -20.03C-164.03 -19.16 -165.31 -17.92 -166.25 -16.28C-167.19 -14.65 -167.66 -12.73 -167.66 -10.53C-167.66 -8.32 -167.19 -6.41 -166.25 -4.79C-165.31 -3.17 -164.03 -1.92 -162.39 -1.04C-160.76 -0.17 -158.92 0.27 -156.86 0.27C-154.81 0.27 -152.97 -0.17 -151.33 -1.04C-149.7 -1.92 -148.42 -3.17 -147.48 -4.79C-146.54 -6.41 -146.07 -8.32 -146.07 -10.53C-146.07 -12.73 -146.54 -14.65 -147.48 -16.28C-148.42 -17.92 -149.7 -19.16 -151.33 -20.03ZM-160.66 -15.1C-159.63 -16.16 -158.36 -16.68 -156.86 -16.68C-155.37 -16.68 -154.1 -16.16 -153.06 -15.1C-152.03 -14.05 -151.51 -12.53 -151.51 -10.53C-151.51 -8.52 -152.03 -7 -153.06 -5.95C-154.1 -4.9 -155.37 -4.37 -156.86 -4.37C-158.36 -4.37 -159.63 -4.9 -160.66 -5.95C-161.7 -7 -162.22 -8.52 -162.22 -10.53C-162.22 -12.53 -161.7 -14.05 -160.66 -15.1Z M-124.91 -20.03C-126.32 -20.89 -127.92 -21.32 -129.69 -21.32C-131.47 -21.32 -132.98 -20.9 -134.23 -20.06C-135.49 -19.23 -136.38 -18.1 -136.91 -16.68L-136.91 -28.12L-142.27 -28.12L-142.27 0L-136.91 0L-136.91 -4.41C-136.38 -2.99 -135.49 -1.86 -134.23 -1.01C-132.98 -0.16 -131.47 0.27 -129.69 0.27C-127.92 0.27 -126.32 -0.16 -124.91 -1.03C-123.49 -1.89 -122.38 -3.13 -121.58 -4.77C-120.78 -6.4 -120.38 -8.32 -120.38 -10.53C-120.38 -12.73 -120.78 -14.65 -121.58 -16.28C-122.38 -17.92 -123.49 -19.16 -124.91 -20.03ZM-135.37 -14.99C-134.32 -16.09 -132.99 -16.64 -131.37 -16.64C-129.69 -16.64 -128.35 -16.1 -127.34 -15.01C-126.32 -13.92 -125.82 -12.43 -125.82 -10.53C-125.82 -8.63 -126.32 -7.14 -127.34 -6.06C-128.35 -4.98 -129.69 -4.45 -131.37 -4.45C-132.99 -4.45 -134.32 -5 -135.37 -6.1C-136.43 -7.2 -136.95 -8.68 -136.95 -10.53C-136.95 -12.4 -136.43 -13.89 -135.37 -14.99Z M-103.78 -20.06C-105.04 -20.9 -106.56 -21.32 -108.34 -21.32C-110.11 -21.32 -111.71 -20.89 -113.13 -20.03C-114.54 -19.16 -115.65 -17.92 -116.45 -16.28C-117.25 -14.65 -117.65 -12.73 -117.65 -10.53C-117.65 -8.32 -117.25 -6.4 -116.45 -4.77C-115.65 -3.13 -114.54 -1.89 -113.13 -1.03C-111.71 -0.16 -110.11 0.27 -108.34 0.27C-106.56 0.27 -105.04 -0.16 -103.78 -1.01C-102.51 -1.86 -101.61 -2.99 -101.08 -4.41L-101.08 0L-95.76 0L-95.76 -21.05L-101.08 -21.05L-101.08 -16.68C-101.61 -18.1 -102.51 -19.23 -103.78 -20.06ZM-110.69 -15.01C-109.68 -16.1 -108.34 -16.64 -106.67 -16.64C-105.04 -16.64 -103.71 -16.09 -102.66 -14.99C-101.61 -13.89 -101.08 -12.4 -101.08 -10.53C-101.08 -8.68 -101.61 -7.2 -102.66 -6.1C-103.71 -5 -105.04 -4.45 -106.67 -4.45C-108.34 -4.45 -109.68 -4.98 -110.69 -6.06C-111.71 -7.14 -112.21 -8.63 -112.21 -10.53C-112.21 -12.43 -111.71 -13.92 -110.69 -15.01Z M-85.54 -28.12L-90.9 -28.12L-90.9 0L-85.54 0Z M-67.03 -4.1L-67.03 -26.83L-72.39 -26.83L-72.39 0L-58.03 0L-58.03 -4.1Z M-49.48 -22.57L-38.84 -22.57L-38.84 -26.83L-54.83 -26.83L-54.83 0L-38.84 0L-38.84 -4.29L-49.48 -4.29L-49.48 -11.51L-39.98 -11.51L-39.98 -15.62L-49.48 -15.62Z M-29.53 -26.83L-34.88 -26.83L-34.88 0L-29.53 0Z M-7.9 -20.2C-9.2 -19.42 -10.23 -18.37 -11.02 -17.02L-11.02 -21.05L-16.38 -21.05L-16.38 0L-11.02 0L-11.02 -10.15C-11.02 -13.79 -9.06 -15.62 -5.13 -15.62L-3.57 -15.62L-3.57 -21.36C-5.17 -21.36 -6.61 -20.97 -7.9 -20.2Z M19 -9.5C19.13 -10.18 19.19 -10.79 19.19 -11.32C19.19 -13.25 18.77 -14.97 17.92 -16.47C17.07 -17.98 15.87 -19.16 14.31 -20.03C12.75 -20.89 10.93 -21.32 8.85 -21.32C6.8 -21.32 4.98 -20.89 3.38 -20.03C1.79 -19.16 0.54 -17.92 -0.34 -16.28C-1.23 -14.65 -1.67 -12.73 -1.67 -10.53C-1.67 -8.32 -1.23 -6.41 -0.34 -4.79C0.54 -3.17 1.79 -1.92 3.38 -1.04C4.98 -0.17 6.8 0.27 8.85 0.27C10.6 0.27 12.19 -0.06 13.62 -0.72C15.05 -1.38 16.23 -2.29 17.14 -3.46C18.05 -4.62 18.65 -5.94 18.92 -7.41L13.26 -7.41C13.03 -6.37 12.51 -5.55 11.69 -4.94C10.86 -4.33 9.83 -4.03 8.59 -4.03C7.19 -4.03 6.03 -4.47 5.09 -5.36C4.15 -6.24 3.65 -7.63 3.57 -9.5ZM12.45 -15.77C13.42 -14.88 13.87 -13.58 13.79 -11.86L3.57 -11.86C3.67 -13.58 4.22 -14.88 5.21 -15.77C6.19 -16.66 7.41 -17.1 8.85 -17.1C10.27 -17.1 11.47 -16.66 12.45 -15.77Z M35.8 -20.06C34.53 -20.9 33.01 -21.32 31.24 -21.32C29.46 -21.32 27.87 -20.89 26.45 -20.03C25.03 -19.16 23.92 -17.92 23.12 -16.28C22.33 -14.65 21.93 -12.73 21.93 -10.53C21.93 -8.32 22.33 -6.4 23.12 -4.77C23.92 -3.13 25.03 -1.89 26.45 -1.03C27.87 -0.16 29.46 0.27 31.24 0.27C33.01 0.27 34.53 -0.16 35.8 -1.01C37.06 -1.86 37.96 -2.99 38.49 -4.41L38.49 0.08C38.49 1.95 38.01 3.35 37.05 4.27C36.09 5.2 34.82 5.66 33.25 5.66C31.88 5.66 30.76 5.36 29.89 4.77C29.01 4.17 28.42 3.34 28.12 2.28L22.84 2.28C23.24 4.76 24.38 6.73 26.26 8.17C28.13 9.61 30.59 10.34 33.63 10.34C35.81 10.34 37.66 9.89 39.2 9.01C40.73 8.12 41.88 6.9 42.66 5.34C43.43 3.78 43.81 2.03 43.81 0.08L43.81 -21.05L38.49 -21.05L38.49 -16.68C37.96 -18.1 37.06 -19.23 35.8 -20.06ZM28.88 -15.01C29.89 -16.1 31.24 -16.64 32.91 -16.64C34.53 -16.64 35.87 -16.09 36.92 -14.99C37.97 -13.89 38.49 -12.4 38.49 -10.53C38.49 -8.68 37.97 -7.2 36.92 -6.1C35.87 -5 34.53 -4.45 32.91 -4.45C31.24 -4.45 29.89 -4.98 28.88 -6.06C27.87 -7.14 27.36 -8.63 27.36 -10.53C27.36 -12.43 27.87 -13.92 28.88 -15.01Z M48.98 -29.2C48.37 -28.66 48.07 -27.96 48.07 -27.09C48.07 -26.26 48.37 -25.57 48.98 -25.02C49.59 -24.48 50.39 -24.21 51.38 -24.21C52.36 -24.21 53.16 -24.48 53.77 -25.02C54.38 -25.57 54.68 -26.26 54.68 -27.09C54.68 -27.96 54.38 -28.66 53.77 -29.2C53.16 -29.75 52.36 -30.02 51.38 -30.02C50.39 -30.02 49.59 -29.75 48.98 -29.2ZM54.04 -21.05L48.68 -21.05L48.68 0L54.04 0Z M72.31 -19.38C70.77 -20.67 68.72 -21.32 66.16 -21.32C63.7 -21.32 61.78 -20.75 60.38 -19.61C58.99 -18.47 58.29 -16.99 58.29 -15.16C58.29 -13.74 58.64 -12.63 59.34 -11.82C60.03 -11.01 60.87 -10.42 61.85 -10.05C62.82 -9.68 64.09 -9.32 65.66 -8.97C66.8 -8.69 67.68 -8.45 68.31 -8.25C68.93 -8.04 69.44 -7.75 69.86 -7.37C70.28 -6.99 70.49 -6.5 70.49 -5.89C70.49 -5.18 70.25 -4.6 69.77 -4.16C69.29 -3.72 68.59 -3.5 67.68 -3.5C66.41 -3.5 65.39 -3.79 64.6 -4.39C63.81 -4.98 63.36 -5.8 63.23 -6.84L58.1 -6.84C58.46 -4.56 59.46 -2.81 61.1 -1.58C62.75 -0.35 64.94 0.27 67.68 0.27C70.06 0.27 71.95 -0.29 73.36 -1.41C74.77 -2.52 75.47 -3.98 75.47 -5.78C75.47 -7.22 75.11 -8.37 74.39 -9.21C73.66 -10.06 72.8 -10.68 71.8 -11.08C70.8 -11.47 69.5 -11.84 67.91 -12.2C66.77 -12.48 65.89 -12.72 65.28 -12.92C64.68 -13.12 64.17 -13.4 63.76 -13.76C63.36 -14.11 63.16 -14.58 63.16 -15.16C63.16 -15.9 63.41 -16.48 63.92 -16.91C64.42 -17.34 65.13 -17.56 66.04 -17.56C67.18 -17.56 68.11 -17.25 68.82 -16.64C69.53 -16.04 69.98 -15.23 70.19 -14.21L75.2 -14.21C74.82 -16.37 73.86 -18.09 72.31 -19.38Z M90.71 -4.6L88.62 -4.6C87.65 -4.6 86.97 -4.8 86.56 -5.21C86.16 -5.61 85.96 -6.32 85.96 -7.33L85.96 -16.53L90.67 -16.53L90.67 -21.05L85.96 -21.05L85.96 -26.26L80.6 -26.26L80.6 -21.05L77.67 -21.05L77.67 -16.53L80.6 -16.53L80.6 -7.41C80.6 -4.75 81.23 -2.85 82.48 -1.71C83.73 -0.57 85.54 0 87.89 0L90.71 0Z M103.02 -20.2C101.73 -19.42 100.69 -18.37 99.9 -17.02L99.9 -21.05L94.54 -21.05L94.54 0L99.9 0L99.9 -10.15C99.9 -13.79 101.87 -15.62 105.79 -15.62L107.35 -15.62L107.35 -21.36C105.75 -21.36 104.31 -20.97 103.02 -20.2Z M123.12 -20.06C121.85 -20.9 120.33 -21.32 118.56 -21.32C116.79 -21.32 115.19 -20.89 113.77 -20.03C112.35 -19.16 111.25 -17.92 110.45 -16.28C109.65 -14.65 109.25 -12.73 109.25 -10.53C109.25 -8.32 109.65 -6.4 110.45 -4.77C111.24 -3.13 112.35 -1.89 113.77 -1.03C115.19 -0.16 116.79 0.27 118.56 0.27C120.33 0.27 121.85 -0.16 123.12 -1.01C124.39 -1.86 125.29 -2.99 125.82 -4.41L125.82 0L131.14 0L131.14 -21.05L125.82 -21.05L125.82 -16.68C125.29 -18.1 124.39 -19.23 123.12 -20.06ZM116.2 -15.01C117.22 -16.1 118.56 -16.64 120.23 -16.64C121.85 -16.64 123.19 -16.09 124.24 -14.99C125.29 -13.89 125.82 -12.4 125.82 -10.53C125.82 -8.68 125.29 -7.2 124.24 -6.1C123.19 -5 121.85 -4.45 120.23 -4.45C118.56 -4.45 117.22 -4.98 116.2 -6.06C115.19 -7.14 114.68 -8.63 114.68 -10.53C114.68 -12.43 115.19 -13.92 116.2 -15.01Z M147.25 -4.6L145.16 -4.6C144.2 -4.6 143.51 -4.8 143.11 -5.21C142.7 -5.61 142.5 -6.32 142.5 -7.33L142.5 -16.53L147.21 -16.53L147.21 -21.05L142.5 -21.05L142.5 -26.26L137.14 -26.26L137.14 -21.05L134.22 -21.05L134.22 -16.53L137.14 -16.53L137.14 -7.41C137.14 -4.75 137.77 -2.85 139.02 -1.71C140.28 -0.57 142.08 0 144.44 0L147.25 0Z M151.39 -29.2C150.78 -28.66 150.48 -27.96 150.48 -27.09C150.48 -26.26 150.78 -25.57 151.39 -25.02C152 -24.48 152.8 -24.21 153.79 -24.21C154.77 -24.21 155.57 -24.48 156.18 -25.02C156.79 -25.57 157.09 -26.26 157.09 -27.09C157.09 -27.96 156.79 -28.66 156.18 -29.2C155.57 -29.75 154.77 -30.02 153.79 -30.02C152.8 -30.02 152 -29.75 151.39 -29.2ZM156.45 -21.05L151.09 -21.05L151.09 0L156.45 0Z M176.57 -20.03C174.93 -20.89 173.09 -21.32 171.04 -21.32C168.99 -21.32 167.14 -20.89 165.51 -20.03C163.87 -19.16 162.59 -17.92 161.65 -16.28C160.71 -14.65 160.25 -12.73 160.25 -10.53C160.25 -8.32 160.71 -6.41 161.65 -4.79C162.59 -3.17 163.87 -1.92 165.51 -1.04C167.14 -0.17 168.99 0.27 171.04 0.27C173.09 0.27 174.93 -0.17 176.57 -1.04C178.2 -1.92 179.49 -3.17 180.42 -4.79C181.36 -6.41 181.83 -8.32 181.83 -10.53C181.83 -12.73 181.36 -14.65 180.42 -16.28C179.49 -17.92 178.2 -19.16 176.57 -20.03ZM167.24 -15.1C168.28 -16.16 169.54 -16.68 171.04 -16.68C172.53 -16.68 173.8 -16.16 174.84 -15.1C175.88 -14.05 176.4 -12.53 176.4 -10.53C176.4 -8.52 175.88 -7 174.84 -5.95C173.8 -4.9 172.53 -4.37 171.04 -4.37C169.54 -4.37 168.28 -4.9 167.24 -5.95C166.2 -7 165.68 -8.52 165.68 -10.53C165.68 -12.53 166.2 -14.05 167.24 -15.1Z M203.98 -18.96C202.54 -20.56 200.6 -21.36 198.17 -21.36C196.5 -21.36 195.02 -20.96 193.74 -20.16C192.46 -19.36 191.55 -18.25 190.99 -16.83L190.99 -21.05L185.63 -21.05L185.63 0L190.99 0L190.99 -11.17C190.99 -13.02 191.44 -14.44 192.36 -15.43C193.27 -16.42 194.48 -16.91 196 -16.91C197.5 -16.91 198.68 -16.45 199.54 -15.52C200.4 -14.6 200.83 -13.3 200.83 -11.63L200.83 0L206.15 0L206.15 -12.24C206.15 -15.12 205.43 -17.37 203.98 -18.96Z"></path></g><g id="SvgjsG118804" class="text" transform="translate(287.94495841128065, 40.9) scale(1)" light-content="false" fill="#213360"><path d="M-132.58 -40.33L-162.86 -40.33L-162.86 -33.93L-151.78 -33.93L-151.78 0L-143.72 0L-143.72 -33.93L-132.58 -33.93Z M-107.11 0L-98.19 0L-108.25 -16.11C-105.05 -16.79 -102.6 -18.17 -100.91 -20.22C-99.21 -22.28 -98.37 -24.83 -98.37 -27.88C-98.37 -31.61 -99.59 -34.62 -102.05 -36.9C-104.51 -39.19 -108.08 -40.33 -112.76 -40.33L-128.13 -40.33L-128.13 0L-120.07 0L-120.07 -15.71L-116.53 -15.71ZM-120.07 -21.25L-120.07 -33.53L-113.45 -33.53C-111.09 -33.53 -109.34 -32.99 -108.22 -31.9C-107.1 -30.82 -106.53 -29.3 -106.53 -27.36C-106.53 -23.29 -108.84 -21.25 -113.45 -21.25Z M-85.17 -40.33L-93.17 -40.33L-93.17 -16.68C-93.17 -11.08 -91.72 -6.84 -88.83 -3.94C-85.93 -1.05 -82.07 0.4 -77.23 0.4C-74.11 0.4 -71.32 -0.23 -68.86 -1.49C-66.41 -2.74 -64.48 -4.66 -63.09 -7.23C-61.7 -9.8 -61.01 -12.95 -61.01 -16.68L-61.01 -40.33L-69 -40.33L-69 -16.68C-69 -13.52 -69.7 -11.15 -71.09 -9.57C-72.48 -7.99 -74.47 -7.2 -77.06 -7.2C-79.69 -7.2 -81.7 -7.99 -83.09 -9.57C-84.48 -11.15 -85.17 -13.52 -85.17 -16.68Z M-27.76 -5.34C-26.73 -7.07 -26.22 -8.97 -26.22 -11.02C-26.22 -13.61 -26.79 -15.71 -27.93 -17.31C-29.08 -18.91 -30.46 -20.11 -32.07 -20.91C-33.69 -21.71 -35.8 -22.56 -38.39 -23.48C-40.25 -24.09 -41.73 -24.64 -42.81 -25.13C-43.9 -25.63 -44.79 -26.27 -45.5 -27.05C-46.2 -27.83 -46.56 -28.81 -46.56 -29.99C-46.56 -31.47 -46.1 -32.61 -45.18 -33.39C-44.27 -34.17 -43.07 -34.56 -41.59 -34.56C-39.87 -34.56 -38.52 -34.09 -37.53 -33.16C-36.54 -32.23 -35.93 -31.04 -35.7 -29.59L-27.02 -29.59C-27.36 -33.02 -28.8 -35.76 -31.33 -37.82C-33.86 -39.87 -37.26 -40.9 -41.53 -40.9C-45.64 -40.9 -48.94 -39.9 -51.44 -37.9C-53.93 -35.9 -55.18 -33.17 -55.18 -29.7C-55.18 -27.19 -54.62 -25.15 -53.5 -23.59C-52.37 -22.03 -51.01 -20.84 -49.41 -20.02C-47.81 -19.2 -45.76 -18.37 -43.24 -17.54C-41.3 -16.89 -39.78 -16.32 -38.67 -15.82C-37.57 -15.33 -36.65 -14.67 -35.93 -13.85C-35.21 -13.03 -34.85 -12 -34.85 -10.74C-34.85 -9.33 -35.29 -8.18 -36.19 -7.28C-37.08 -6.39 -38.37 -5.94 -40.04 -5.94C-41.91 -5.94 -43.4 -6.48 -44.53 -7.57C-45.65 -8.65 -46.31 -10.02 -46.5 -11.65L-55.07 -11.65C-54.88 -9.22 -54.1 -7.08 -52.75 -5.26C-51.4 -3.43 -49.6 -2.03 -47.35 -1.06C-45.11 -0.09 -42.56 0.4 -39.7 0.4C-36.81 0.4 -34.35 -0.12 -32.33 -1.17C-30.31 -2.22 -28.79 -3.61 -27.76 -5.34Z M7.14 -40.33L-23.13 -40.33L-23.13 -33.93L-12.05 -33.93L-12.05 0L-4 0L-4 -33.93L7.14 -33.93Z M19.65 -33.93L35.64 -33.93L35.64 -40.33L11.6 -40.33L11.6 0L35.64 0L35.64 -6.45L19.65 -6.45L19.65 -17.31L33.93 -17.31L33.93 -23.48L19.65 -23.48Z M74.55 -9.65C76.22 -12.7 77.06 -16.22 77.06 -20.22C77.06 -24.26 76.22 -27.79 74.55 -30.82C72.87 -33.85 70.44 -36.19 67.26 -37.84C64.08 -39.5 60.3 -40.33 55.92 -40.33L41.59 -40.33L41.59 0L55.92 0C60.3 0 64.08 -0.85 67.26 -2.54C70.44 -4.24 72.87 -6.61 74.55 -9.65ZM65.32 -10.62C62.94 -8.34 59.58 -7.2 55.24 -7.2L49.64 -7.2L49.64 -33.3L55.24 -33.3C59.58 -33.3 62.94 -32.16 65.32 -29.88C67.7 -27.59 68.89 -24.37 68.89 -20.22C68.89 -16.11 67.7 -12.91 65.32 -10.62Z M103.62 -6.17L103.62 -40.33L95.57 -40.33L95.57 0L117.16 0L117.16 -6.17Z M130.01 -33.93L146.01 -33.93L146.01 -40.33L121.96 -40.33L121.96 0L146.01 0L146.01 -6.45L130.01 -6.45L130.01 -17.31L144.29 -17.31L144.29 -23.48L130.01 -23.48Z M160 -40.33L151.95 -40.33L151.95 0L160 0Z"></path></g></g></svg>