<svg xmlns="http://www.w3.org/2000/svg" version="1.1" xlink="http://www.w3.org/1999/xlink" xmlns:svgjs="http://svgjs.com/svgjs" width="100%" height="100%" preserveAspectRatio="xMidYMid meet" viewBox="-0.000006510674666060368 0 300.0000305175781 66.62065887451172" overflow="visible"><defs id="SvgjsDefs69673"></defs><g id="SvgjsG69674" transform="scale(1.059795123552233)" opacity="1"><g id="SvgjsG69675" class="ZjYvm9O7C" transform="translate(-5.780431384797942, -6.911813668162311) scale(0.7577912145776021)" light-content="false" non-strokable="false" fill="#639ed4"><path d="M56.148 28.133c.094.313.438 1.188.219 1.563s-1.5 2.218-.219 2.093 2.719-.687 2.188-1.75-1.157-1.937-1.375-2.53-.2-1.157-.2-1.157-.707-.781-1.082-.719c0 0-.718.625-.593 1.188.125.566.968 1 1.062 1.312z"></path><path d="M54.805 30.102c.375-.406.969-2.188-.313-1.844 0 0-1.343 1.531-1.343 1.844s1.28.406 1.656 0z"></path><path d="M90.449 47.395c-.871-11.363-6.34-21.461-14.555-28.426a41.676 41.676 0 0 0-7.48-5.063 41.08 41.08 0 0 0-12.427-4.203 41.654 41.654 0 0 0-6.886-.582c-2.703 0-5.344.27-7.902.766-2.16.418-4.27 1-6.297 1.742a39.594 39.594 0 0 0-3.329 1.395 41.932 41.932 0 0 0-3.543 1.87c-.109.063-.222.126-.328.188-.695.422-1.37.864-2.039 1.32-.254.176-.504.356-.754.536a41.781 41.781 0 0 0-5.172 4.394c-7.476 7.512-12.109 17.855-12.109 29.27 0 .082.008.164.008.246.086 14.375 7.52 27.035 18.73 34.414 1.41.93 2.88 1.774 4.399 2.524a41.21 41.21 0 0 0 18.344 4.289c22.87 0 41.48-18.605 41.48-41.48a43.432 43.432 0 0 0-.14-3.2zm-2 .07c-.223-.047-.422-.011-.563.149-.582.668-2.414-.04-3.331-1.332-.918-1.293-.813-2.395.5-1.586.847.523 1.933 1.512 3.351 2.148.016.207.027.414.043.621zm-3.414-13.19c-.055.1-.106.179-.11.195-.019.062-.437.332-.746.668-.308.336.247.875.809 1.289.563.414.313 1.375.895 2 .585.625.105 2.25-.356 2.48-.46.23-.96-.25-1.875-.543-.918-.293-.168-2.414-.21-2.582-.04-.168-.563-.918-1.02-1.52-.461-.605-.063-.667 0-1.355s1.855-1.52 1.855-1.52c.145-.007.25.005.356.016.144.286.27.578.402.871zM9.672 52.351c1.34.567 2.848.735 3.566.598 1.313-.25.875.812 2.125 1.187s2.25 1.625 3.75 3.188 3.106.836 3.106.836-.168 1.668-.586 2.168c-.414.5-2.664-1-.664 5.75s5 5.75 5.664 6.25c.668.5.086 6.668-.164 9.582-.028.332-.05.648-.07.96-9.684-6.847-16.172-17.921-16.727-30.52zM49.106 90.08a39.248 39.248 0 0 1-17.426-4.066c.043-.07.082-.137.121-.191.668-1 2-.918 2.39-1.418s1.442-1.832 2.774-2.844c1.332-1.012 1.5-3.739 1.75-4.739s2.664-1.75 3.664-2.332.668-3.668.75-4.668c.086-1 1.918-2.5 2.25-3.918.336-1.418-1.914-2.164-3.25-2.664-1.332-.5-2.332-1-4.664-1.25-2.336-.25-1.168-3.086-3.336-3.336-2.164-.25-1.082-.164-2.164-1.164-1.086-1-1.336-1.418-3-1.48-1.668-.067-2.418-.27-3.336-.602-.914-.336-2.664 1.25-2.664 1.25s-.559.528-.715.574-.656-.218-.906-.468-.672.5-1.031.375-.735-1.031-1.172-1.313.187-1.25-.219-2.375-1.812-.187-2.625-.406.531-1.938.906-2.594-.468-.656-1.187-.594-1.094 1.594-2.219 1.47-1.469-.563-1.406-1.47-.906-1.125-.063-3.375 3.531-1.28 4.156-1.593 1.625-.25 2.938.125 1.062 1.75 1.125 2.25.5-1.75.375-3.125 2.062-1.563 3.062-2.438 1.625-2.812 2.125-3.625 1.688-.937 2-1.875 1.797-1.234 2-1.39.516.078.313.562.437.39.937 0 2.332-1.465 1.981-1.754c-.355-.293-.52.293-.895.211s-.687-.418-.855-.812c-.168-.395.25-.543-.105-1s-.73-.645-.27-.98c.457-.333 2.54.167 3.414-.044.875-.21 1-.375.961.043-.039.418-.73 1.414-.98 1.73-.25.313 2.312.626 2.937.626s-.187-1.438-1-1.875.063-1.875-.187-2.797-1.938-2.059-2.106-2.602c-.164-.539-.375-2.25-.707-2.836s-.625.336-.957.75c-.336.414-.918.086-1.125-.164-.21-.25-.21-.293-.293-1.5-.082-1.207-2.332-2.293-3.168-2.336-.832-.043.211 1.586-.082 2.211s-.957.5-.582 1.832-1.418 2.582-2.043 3 .332 2.668-.457 2.543c-.793-.125-1.168-1.375-1.375-1.96-.211-.587.539-.79.457-1.126s-.332 0-.793-.289c-.457-.289-.457-.418-1.125-.625-.664-.207-.332-.586-.707-.96s-1.082-.376-1.457-.376a.182.182 0 0 1-.11-.027 39.779 39.779 0 0 1 6.489-5.793 39.575 39.575 0 0 1 5.746-3.422c-.055.387-.2.719-.5.824-.71.25-.336 1.207-.918 1.29-.582.081-1.625.374-1.793.917-.164.543 1.918.582 2.25.543.336-.039 1.418 1.832 1.96 2.414.54.582 1.5-.625 1.75-1.332.25-.707-.874-2.207-.835-2.625.043-.418 1.5.957 1.5.957s.918-.957 1.168-1.289-.707-.96-1.25-1.543c-.543-.582-.543-.25-.625-1.293v-.039a38.825 38.825 0 0 1 6.547-1.949c.707.613.031 2.844-.586 4.16-.664 1.414-.332 1.914-.164 2.414.164.5 2.086 6.664 3.289 5.332 1.21-1.332 2.5-5.71 3.75-5.793 1.25-.082 1.418-1.21 2.543-1.5 1.125-.289 1.793.082 2.957-.75.89-.636 1.293-2.742 1.914-4.226a39.159 39.159 0 0 1 11.29 3.472c-.255.23-.5.489-.747.797-1.21 1.5-1.586 2.586-2.21 3.918s-2.364 2.52-2.864 3.301-.5 3.188.281 3.188 1.906-1 2.063-.75 1.093 2.187 1.75 2.062 1.906-2.781 1.687-3.969-.125-1.5.156-1.843.157-1.625 1.125-1.688 1.844-.844 1.125.469-.968 1.562-.718 2.125 0 1.531 1.312 1.281 2.188-.156 2.188 0-2 .562-2.47 1.687-.468 1.22-.593 1.907-.844 1.093-.844 1.093l-3.687.594s-.781-.793-1.2-.5c-.414.293-.937.438-1.5.832-.562.395-1.769 1.438-2.019 1.961-.25.52-.875 1.02-1.875 1.27s-1.875.289-1.437.582c.437.293 1.48.73 1.48 1.586s.29 1.562-.168 1.687-2.668-.289-3.082.586a7.203 7.203 0 0 0-.668 2.54c-.043.71-.125 1.374 1.25 1.335 1.375-.043 2.293-.297 2.75-.586.457-.289.332-.871 1.125-1.664s1.043-.457 1.082-1.125c.043-.668-.125-1.375.375-1.25s.961-.46 1.5-.21c.543.25.875-.626 1.711.292.832.918 1.79 1.5 2.04 2.043.25.54 1.124.875.835 1.582-.293.707.875-1.27.813-1.832s-1.188-1.375-1.336-1.605c-.145-.23-.895-1.481-.04-1.188.856.293 2.106 1.48 2.165 1.938.062.46.644 2 1.144 2.625s1.188.855 1.25.832c.063-.02-.355-1.5-.043-2.145s1.02-.918 1.313-.75c.289.168.332.457.668.25.332-.207.77-.418.707-1.043s.125-1.394.293-1.75c.164-.355.73-1.5 1.039-1.02.312.481.644 1.063 1.125 1.083s.394-.563 1.543-.145c1.144.414 3.418 1.21 2.687 1.856s-1.23 1.164-1.894.894c-.668-.27-1.395-.77-2.211-.605-.813.168-3.664.457-3.582 1.5s1.043 2.625 2.668 2.168 2.144-.356 2.332 0 .375 2.668-1.48 2.937c0 0-5.665-.914-6.25-1.082-1.083-.168-.5 1.25-.5 1.582s-4.665-.86-4.665-1.598c0-.738 1.75-2.734-3.086-1.984-4.832.75-6.164 1.7-7.414 3.64s-4.25 2.61-4.086 6.192c.168 3.582-.664 3.918 1.418 5.832 2.082 1.914 2.082 3.582 8 1.914 5.918-1.664 2.332-.133 2.918.684.582.816 1.664.066 1.832.816s-1.168 2.25.168 3.75c1.332 1.5 2.082 5.25 1.332 6.25s.918 3.168.668 5.336 1.625 2.418 1.957 4.043 1.207 3.082 5.293 1c4.082-2.082 2-4.043 3.125-4.543s.461-2.79 1.875-3.664c1.414-.875 3.25-1.336 2.164-5.5-1.082-4.168 1.086-4.164 2.836-5.957 1.75-1.793 4.414-5.668 2.875-5.293-1.543.375-2.75 1.375-4.375-.79-1.625-2.167-6.336-9.374-4.668-8.5s5.625 5.75 5.625 8.376c0 0 1.207.418 4.125-1.75a43.887 43.887 0 0 1 2.266-1.563c-.39 21.422-17.93 38.73-39.453 38.73z"></path></g><g id="SvgjsG69676" class="text" transform="translate(128.77294631234497, 57.601826312506304) scale(1)" light-content="false" fill="#213360"><path d="M-46.49 -7.34L-43.25 -7.34C-40.99 -7.34 -39.25 -7.9 -38.02 -9.02C-36.8 -10.14 -36.19 -11.64 -36.19 -13.52C-36.19 -15.45 -36.78 -16.97 -37.97 -18.09C-39.15 -19.21 -40.91 -19.77 -43.25 -19.77L-50.44 -19.77L-50.44 0L-46.49 0ZM-40.19 -13.52C-40.19 -11.51 -41.35 -10.5 -43.67 -10.5L-46.49 -10.5L-46.49 -16.58L-43.67 -16.58C-42.43 -16.58 -41.55 -16.31 -41.01 -15.79C-40.46 -15.27 -40.19 -14.51 -40.19 -13.52Z M-19.32 -18.76C-20.82 -19.62 -22.5 -20.05 -24.35 -20.05C-26.19 -20.05 -27.87 -19.62 -29.37 -18.76C-30.87 -17.9 -32.06 -16.7 -32.93 -15.16C-33.8 -13.62 -34.23 -11.88 -34.23 -9.94C-34.23 -8 -33.8 -6.25 -32.93 -4.7C-32.06 -3.15 -30.87 -1.95 -29.37 -1.09C-27.87 -0.23 -26.19 0.2 -24.35 0.2C-22.5 0.2 -20.82 -0.23 -19.32 -1.09C-17.82 -1.95 -16.63 -3.15 -15.76 -4.7C-14.9 -6.25 -14.46 -8 -14.46 -9.94C-14.46 -11.88 -14.9 -13.62 -15.76 -15.16C-16.63 -16.7 -17.82 -17.9 -19.32 -18.76ZM-27.4 -15.62C-26.52 -16.15 -25.5 -16.41 -24.35 -16.41C-23.19 -16.41 -22.17 -16.15 -21.29 -15.62C-20.42 -15.1 -19.73 -14.35 -19.24 -13.37C-18.74 -12.39 -18.49 -11.25 -18.49 -9.94C-18.49 -8.63 -18.74 -7.49 -19.24 -6.51C-19.73 -5.53 -20.42 -4.78 -21.29 -4.26C-22.17 -3.73 -23.19 -3.47 -24.35 -3.47C-25.5 -3.47 -26.52 -3.73 -27.4 -4.26C-28.28 -4.78 -28.96 -5.53 -29.46 -6.51C-29.95 -7.49 -30.2 -8.63 -30.2 -9.94C-30.2 -11.25 -29.95 -12.39 -29.46 -13.37C-28.96 -14.35 -28.28 -15.1 -27.4 -15.62Z M-1.19 0L3.18 0L-1.75 -7.9C-0.18 -8.23 1.02 -8.9 1.85 -9.91C2.68 -10.92 3.09 -12.17 3.09 -13.66C3.09 -15.49 2.49 -16.97 1.29 -18.09C0.08 -19.21 -1.67 -19.77 -3.96 -19.77L-11.49 -19.77L-11.49 0L-7.55 0L-7.55 -7.7L-5.81 -7.7ZM-7.55 -10.42L-7.55 -16.44L-4.3 -16.44C-3.14 -16.44 -2.29 -16.17 -1.74 -15.64C-1.19 -15.11 -0.91 -14.36 -0.91 -13.41C-0.91 -11.41 -2.04 -10.42 -4.3 -10.42Z M19.19 -19.77L4.35 -19.77L4.35 -16.63L9.79 -16.63L9.79 0L13.73 0L13.73 -16.63L19.19 -16.63Z M33.42 -3.98L34.79 0L38.96 0L31.71 -19.54L27.2 -19.54L19.92 0L24.09 0L25.49 -3.98ZM32.35 -6.97L26.53 -6.97L29.44 -15.32Z M45.04 -3.02L45.04 -19.77L41.09 -19.77L41.09 0L51.67 0L51.67 -3.02Z"></path></g><g id="SvgjsG69677" class="text" transform="translate(180.10358761628186, 25.06) scale(1)" light-content="false" fill="#213360"><path d="M-96.77 -3.78L-96.77 -24.71L-101.71 -24.71L-101.71 0L-88.48 0L-88.48 -3.78Z M-80.6 -20.79L-70.81 -20.79L-70.81 -24.71L-85.54 -24.71L-85.54 0L-70.81 0L-70.81 -3.96L-80.6 -3.96L-80.6 -10.6L-71.85 -10.6L-71.85 -14.39L-80.6 -14.39Z M-62.23 -24.71L-67.17 -24.71L-67.17 0L-62.23 0Z M-37.24 0L-31.78 0L-37.94 -9.87C-35.98 -10.29 -34.48 -11.13 -33.44 -12.39C-32.4 -13.65 -31.89 -15.21 -31.89 -17.08C-31.89 -19.37 -32.64 -21.21 -34.14 -22.61C-35.65 -24.01 -37.84 -24.71 -40.71 -24.71L-50.12 -24.71L-50.12 0L-45.18 0L-45.18 -9.63L-43.02 -9.63ZM-45.18 -13.02L-45.18 -20.54L-41.13 -20.54C-39.68 -20.54 -38.61 -20.21 -37.92 -19.55C-37.23 -18.88 -36.89 -17.96 -36.89 -16.76C-36.89 -14.27 -38.3 -13.02 -41.13 -13.02Z M-23.62 -20.79L-13.82 -20.79L-13.82 -24.71L-28.56 -24.71L-28.56 0L-13.82 0L-13.82 -3.96L-23.62 -3.96L-23.62 -10.6L-14.87 -10.6L-14.87 -14.39L-23.62 -14.39Z M8.75 -22.73C6.77 -24.21 4.27 -24.95 1.26 -24.95C-1.17 -24.95 -3.3 -24.42 -5.14 -23.35C-6.99 -22.27 -8.42 -20.78 -9.43 -18.88C-10.45 -16.98 -10.95 -14.81 -10.95 -12.35C-10.95 -9.91 -10.45 -7.73 -9.43 -5.83C-8.42 -3.93 -6.98 -2.44 -5.13 -1.38C-3.27 -0.32 -1.13 0.21 1.3 0.21C3.42 0.21 5.3 -0.2 6.95 -1.03C8.59 -1.86 9.92 -2.96 10.94 -4.34C11.95 -5.72 12.64 -7.22 12.99 -8.85L12.99 -13.62L0.49 -13.62L0.49 -10.08L8.86 -10.08C8.48 -8.21 7.66 -6.76 6.39 -5.71C5.12 -4.65 3.59 -4.13 1.82 -4.13C-0.58 -4.13 -2.48 -4.85 -3.87 -6.3C-5.26 -7.75 -5.95 -9.76 -5.95 -12.35C-5.95 -13.99 -5.65 -15.41 -5.04 -16.62C-4.43 -17.84 -3.58 -18.77 -2.49 -19.42C-1.39 -20.08 -0.13 -20.4 1.3 -20.4C2.74 -20.4 4 -20.07 5.06 -19.41C6.12 -18.74 6.9 -17.85 7.39 -16.73L12.57 -16.73C12.01 -19.25 10.73 -21.25 8.75 -22.73Z M21.63 -24.71L16.7 -24.71L16.7 0L21.63 0Z M42.14 -3.27C42.77 -4.33 43.09 -5.49 43.09 -6.76C43.09 -8.34 42.74 -9.63 42.04 -10.6C41.34 -11.58 40.49 -12.32 39.5 -12.81C38.51 -13.3 37.22 -13.82 35.63 -14.39C34.49 -14.76 33.58 -15.1 32.92 -15.4C32.25 -15.7 31.7 -16.09 31.27 -16.57C30.84 -17.05 30.63 -17.65 30.63 -18.37C30.63 -19.28 30.91 -19.98 31.47 -20.46C32.03 -20.94 32.76 -21.17 33.67 -21.17C34.72 -21.17 35.55 -20.89 36.16 -20.32C36.76 -19.75 37.14 -19.02 37.28 -18.13L42.6 -18.13C42.39 -20.23 41.5 -21.91 39.95 -23.17C38.4 -24.43 36.32 -25.06 33.71 -25.06C31.19 -25.06 29.16 -24.45 27.63 -23.22C26.1 -22 25.34 -20.32 25.34 -18.2C25.34 -16.66 25.68 -15.41 26.37 -14.46C27.06 -13.5 27.9 -12.77 28.88 -12.27C29.86 -11.77 31.12 -11.26 32.66 -10.74C33.85 -10.35 34.78 -10 35.46 -9.69C36.13 -9.39 36.69 -8.99 37.14 -8.49C37.58 -7.99 37.8 -7.35 37.8 -6.58C37.8 -5.72 37.53 -5.01 36.98 -4.46C36.43 -3.91 35.64 -3.64 34.62 -3.64C33.47 -3.64 32.56 -3.97 31.87 -4.64C31.18 -5.3 30.78 -6.14 30.66 -7.14L25.41 -7.14C25.53 -5.65 26 -4.34 26.83 -3.22C27.66 -2.1 28.76 -1.24 30.14 -0.65C31.51 -0.05 33.08 0.25 34.83 0.25C36.6 0.25 38.1 -0.08 39.34 -0.72C40.58 -1.36 41.51 -2.21 42.14 -3.27Z M63.53 -24.71L44.98 -24.71L44.98 -20.79L51.77 -20.79L51.77 0L56.7 0L56.7 -20.79L63.53 -20.79Z M71.19 -20.79L80.99 -20.79L80.99 -24.71L66.26 -24.71L66.26 0L80.99 0L80.99 -3.96L71.19 -3.96L71.19 -10.6L79.94 -10.6L79.94 -14.39L71.19 -14.39Z M97.51 0L102.97 0L96.81 -9.87C98.77 -10.29 100.27 -11.13 101.31 -12.39C102.35 -13.65 102.87 -15.21 102.87 -17.08C102.87 -19.37 102.11 -21.21 100.61 -22.61C99.1 -24.01 96.92 -24.71 94.05 -24.71L84.63 -24.71L84.63 0L89.57 0L89.57 -9.63L91.74 -9.63ZM89.57 -13.02L89.57 -20.54L93.63 -20.54C95.07 -20.54 96.14 -20.21 96.83 -19.55C97.52 -18.88 97.86 -17.96 97.86 -16.76C97.86 -14.27 96.45 -13.02 93.63 -13.02Z"></path></g></g></svg>