<svg xmlns="http://www.w3.org/2000/svg" version="1.1" xlink="http://www.w3.org/1999/xlink" xmlns:svgjs="http://svgjs.com/svgjs" width="100%" height="100%" preserveAspectRatio="xMidYMid meet" viewBox="0.0032015114556998014 0.000013880961887480225 299.9926452636719 91.13945007324219" overflow="visible"><defs id="SvgjsDefs68514"></defs><g id="SvgjsG68515" transform="scale(0.6493506493506495)" opacity="1"><g id="SvgjsG68516" class="NOB6576BP" transform="translate(-53.46611307537395, -53.52047480174892) scale(49.41872096191037)" light-content="false" non-strokable="false" fill="#639ed4"><path d="M1.364 2.557l.494-.18v1.541h.352V1.329l.724.434v2.155h.212v-.754l.527.377v.377h.244v-.686l-.251-.162v-.776l-.52-.318v-.321l-.925-.566v-.006l-.006.003-.005-.003v.005l-.498.202v.831l-.63.256v1.541h.282V2.557zm1.782-.328l.356.215v.519l-.356-.233v-.501z"></path></g><g id="SvgjsG68517" class="text" transform="translate(307.9335875566772, 62.921133200993076) scale(1)" light-content="false" fill="#ffffff"><path d="M-118.3 -20.93C-120.07 -23.11 -122.43 -24.5 -125.37 -25.1C-122.8 -25.7 -120.72 -26.96 -119.13 -28.89C-117.55 -30.83 -116.75 -33.31 -116.75 -36.34C-116.75 -40.25 -118.07 -43.28 -120.72 -45.45C-123.36 -47.61 -127.14 -48.69 -132.06 -48.69L-152.54 -48.69L-152.54 0L-131.65 0C-126.45 0 -122.49 -1.18 -119.75 -3.55C-117.02 -5.92 -115.65 -9.15 -115.65 -13.24C-115.65 -16.18 -116.53 -18.75 -118.3 -20.93ZM-142.82 -28.27L-142.82 -40.89L-134.2 -40.89C-131.63 -40.89 -129.72 -40.34 -128.48 -39.24C-127.23 -38.14 -126.61 -36.57 -126.61 -34.55C-126.61 -32.53 -127.25 -30.98 -128.51 -29.89C-129.77 -28.81 -131.62 -28.27 -134.06 -28.27ZM-127.65 -9.62C-129.03 -8.49 -131 -7.93 -133.58 -7.93L-142.82 -7.93L-142.82 -21.31L-133.65 -21.31C-131.07 -21.31 -129.08 -20.72 -127.68 -19.55C-126.28 -18.38 -125.58 -16.71 -125.58 -14.55C-125.58 -12.39 -126.27 -10.75 -127.65 -9.62Z M-99.1 -40.96L-79.79 -40.96L-79.79 -48.69L-108.82 -48.69L-108.82 0L-79.79 0L-79.79 -7.79L-99.1 -7.79L-99.1 -20.9L-81.86 -20.9L-81.86 -28.34L-99.1 -28.34Z M-32.83 -11.65C-30.8 -15.33 -29.79 -19.59 -29.79 -24.41C-29.79 -29.29 -30.8 -33.55 -32.83 -37.2C-34.85 -40.86 -37.78 -43.69 -41.62 -45.69C-45.46 -47.69 -50.02 -48.69 -55.31 -48.69L-72.62 -48.69L-72.62 0L-55.31 0C-50.02 0 -45.46 -1.02 -41.62 -3.07C-37.78 -5.11 -34.85 -7.98 -32.83 -11.65ZM-43.96 -12.83C-46.84 -10.07 -50.89 -8.69 -56.13 -8.69L-62.89 -8.69L-62.89 -40.2L-56.13 -40.2C-50.89 -40.2 -46.84 -38.83 -43.96 -36.07C-41.09 -33.31 -39.65 -29.42 -39.65 -24.41C-39.65 -19.45 -41.09 -15.59 -43.96 -12.83Z M7.72 -48.69L-22.48 -48.69L-22.48 0L-12.76 0L-12.76 -20.48L3.65 -20.48L3.65 -27.93L-12.76 -27.93L-12.76 -40.96L7.72 -40.96Z M49.48 -46.2C45.78 -48.32 41.65 -49.38 37.1 -49.38C32.55 -49.38 28.42 -48.32 24.72 -46.2C21.02 -44.09 18.1 -41.14 15.96 -37.34C13.83 -33.55 12.76 -29.26 12.76 -24.48C12.76 -19.7 13.83 -15.4 15.96 -11.59C18.1 -7.77 21.02 -4.8 24.72 -2.69C28.42 -0.57 32.55 0.48 37.1 0.48C41.65 0.48 45.78 -0.57 49.48 -2.69C53.18 -4.8 56.1 -7.77 58.24 -11.59C60.38 -15.4 61.44 -19.7 61.44 -24.48C61.44 -29.26 60.38 -33.55 58.24 -37.34C56.1 -41.14 53.18 -44.09 49.48 -46.2ZM29.58 -38.48C31.75 -39.77 34.25 -40.41 37.1 -40.41C39.95 -40.41 42.46 -39.77 44.62 -38.48C46.78 -37.19 48.47 -35.34 49.69 -32.93C50.91 -30.52 51.51 -27.7 51.51 -24.48C51.51 -21.26 50.91 -18.45 49.69 -16.03C48.47 -13.62 46.78 -11.77 44.62 -10.48C42.46 -9.19 39.95 -8.55 37.1 -8.55C34.25 -8.55 31.75 -9.19 29.58 -10.48C27.42 -11.77 25.73 -13.62 24.52 -16.03C23.3 -18.45 22.69 -21.26 22.69 -24.48C22.69 -27.7 23.3 -30.52 24.52 -32.93C25.73 -35.34 27.42 -37.19 29.58 -38.48Z M94.13 0L104.89 0L92.75 -19.45C96.62 -20.27 99.57 -21.93 101.62 -24.41C103.66 -26.9 104.68 -29.98 104.68 -33.65C104.68 -38.16 103.2 -41.79 100.24 -44.55C97.27 -47.31 92.96 -48.69 87.31 -48.69L68.75 -48.69L68.75 0L78.48 0L78.48 -18.96L82.75 -18.96ZM78.48 -25.65L78.48 -40.48L86.48 -40.48C89.33 -40.48 91.43 -39.83 92.79 -38.52C94.14 -37.2 94.82 -35.38 94.82 -33.03C94.82 -28.11 92.04 -25.65 86.48 -25.65Z M151.03 -11.65C153.05 -15.33 154.06 -19.59 154.06 -24.41C154.06 -29.29 153.05 -33.55 151.03 -37.2C149 -40.86 146.07 -43.69 142.23 -45.69C138.39 -47.69 133.83 -48.69 128.54 -48.69L111.24 -48.69L111.24 0L128.54 0C133.83 0 138.39 -1.02 142.23 -3.07C146.07 -5.11 149 -7.98 151.03 -11.65ZM139.89 -12.83C137.02 -10.07 132.96 -8.69 127.72 -8.69L120.96 -8.69L120.96 -40.2L127.72 -40.2C132.96 -40.2 137.02 -38.83 139.89 -36.07C142.76 -33.31 144.2 -29.42 144.2 -24.41C144.2 -19.45 142.76 -15.59 139.89 -12.83Z"></path></g><g id="SvgjsG68518" class="text" transform="translate(297.634826047713, 139.93476997596508) scale(1)" light-content="false" fill="#ffffff"><path d="M-99.94 -45.19C-104.01 -48.37 -109.12 -49.95 -115.29 -49.95C-120.05 -49.95 -124.23 -48.89 -127.83 -46.77C-131.42 -44.64 -134.21 -41.66 -136.2 -37.83C-138.19 -34 -139.18 -29.64 -139.18 -24.73C-139.18 -19.87 -138.19 -15.53 -136.2 -11.7C-134.21 -7.87 -131.41 -4.89 -127.79 -2.77C-124.17 -0.64 -120 0.42 -115.29 0.42C-109.12 0.42 -104.01 -1.17 -99.94 -4.34C-95.88 -7.52 -93.19 -11.84 -91.89 -17.31L-102.26 -17.31C-103.33 -14.64 -105 -12.54 -107.26 -11C-109.53 -9.46 -112.25 -8.69 -115.43 -8.69C-118.04 -8.69 -120.4 -9.34 -122.5 -10.65C-124.6 -11.96 -126.24 -13.83 -127.41 -16.25C-128.58 -18.68 -129.16 -21.51 -129.16 -24.73C-129.16 -28 -128.58 -30.85 -127.41 -33.28C-126.24 -35.71 -124.6 -37.58 -122.5 -38.88C-120.4 -40.19 -118.04 -40.85 -115.43 -40.85C-112.25 -40.85 -109.53 -40.08 -107.26 -38.53C-105 -36.99 -103.33 -34.89 -102.26 -32.23L-91.89 -32.23C-93.19 -37.69 -95.88 -42.01 -99.94 -45.19Z M-54.33 -9.95L-50.9 0L-40.46 0L-58.61 -48.9L-69.89 -48.9L-88.1 0L-77.66 0L-74.16 -9.95ZM-57 -17.45L-71.57 -17.45L-64.28 -38.32Z M-25.26 -18.36L-17.13 -18.36C-11.48 -18.36 -7.12 -19.76 -4.06 -22.56C-1 -25.36 0.53 -29.12 0.53 -33.84C0.53 -38.65 -0.96 -42.46 -3.92 -45.26C-6.89 -48.06 -11.29 -49.46 -17.13 -49.46L-35.14 -49.46L-35.14 0L-25.26 0ZM-9.49 -33.84C-9.49 -28.8 -12.39 -26.27 -18.18 -26.27L-25.26 -26.27L-25.26 -41.48L-18.18 -41.48C-15.1 -41.48 -12.88 -40.82 -11.53 -39.51C-10.17 -38.21 -9.49 -36.32 -9.49 -33.84Z M16.85 -49.46L6.97 -49.46L6.97 0L16.85 0Z M59.45 -49.46L22.31 -49.46L22.31 -41.62L35.91 -41.62L35.91 0L45.79 0L45.79 -41.62L59.45 -41.62Z M95.04 -9.95L98.47 0L108.91 0L90.77 -48.9L79.49 -48.9L61.27 0L71.71 0L75.21 -9.95ZM92.38 -17.45L77.8 -17.45L85.09 -38.32Z M124.11 -7.57L124.11 -49.46L114.24 -49.46L114.24 0L140.72 0L140.72 -7.57Z"></path></g></g></svg>