<svg viewBox="0 0 200 201" xmlns:xlink="http://www.w3.org/1999/xlink" xmlns="http://www.w3.org/2000/svg"><g id="Page-1" stroke="none" stroke-width="1" fill="none" fill-rule="evenodd"><g id="GLEIF-Logo" fill-rule="nonzero"><path d="M189.184 115.455c-7.146 42.437-44.164 74.873-88.626 74.873-49.56 0-89.88-40.297-89.88-89.829S51 10.672 100.558 10.672c44.376 0 81.34 32.314 88.586 74.632h10.822C192.616 37.073 150.838 0 100.558 0 45.11 0 0 45.084 0 100.499 0 155.914 45.11 201 100.558 201c50.362 0 92.2-37.197 99.442-85.551l-10.816.006z" id="Path" fill="#51DAC5"/><path d="M100.558 23.067c-37.518 0-68.89 26.785-75.976 62.237h10.942c6.904-29.512 33.432-51.571 65.034-51.571 36.832 0 66.8 29.949 66.8 66.762s-29.966 66.762-66.8 66.762c-31.688 0-58.274-22.173-65.088-51.804H24.536c7 35.563 38.418 62.478 76.022 62.478 42.72 0 77.476-34.736 77.476-77.434s-34.756-77.43-77.476-77.43z" id="Path" fill="#51DAC5"/></g></g></svg>