<svg width="160" height="160" viewBox="0 0 160 160" fill="none" xmlns="http://www.w3.org/2000/svg">
<circle cx="80" cy="80" r="80" fill="#0055FF"/>
<path d="M98.8682 77.5939L73.3585 61.8932C72.9285 61.6282 72.4359 61.4836 71.9316 61.4742C71.4274 61.4648 70.9298 61.591 70.4903 61.8398C70.055 62.0847 69.6923 62.4418 69.4396 62.8745C69.1869 63.3072 69.0534 63.7997 69.0526 64.3016V95.6993C69.0559 96.4521 69.3562 97.1727 69.8874 97.7028C70.4186 98.233 71.1373 98.5291 71.8855 98.5263C72.4077 98.5261 72.9198 98.3812 73.3656 98.1077L98.8682 82.407C99.2781 82.1556 99.6169 81.8024 99.852 81.3813C100.087 80.9601 100.211 80.4852 100.211 80.0022C100.211 79.5192 100.087 79.0443 99.852 78.6232C99.6169 78.202 99.2781 77.8488 98.8682 77.5974V77.5939ZM71.8855 95.6655V64.3247L97.3509 80.0004L71.8855 95.6655Z" fill="white"/>
<path d="M137.004 71.191C138.348 79.8282 137.69 88.6586 135.08 97.0009C132.47 105.343 127.979 112.975 121.952 119.306C115.926 125.638 108.525 130.5 100.322 133.518C92.1183 136.536 83.3311 137.629 74.6382 136.713C65.9453 135.797 57.579 132.896 50.1848 128.235C42.7907 123.573 36.5664 117.275 31.9921 109.826C27.4177 102.377 24.6157 93.9775 23.8023 85.2743C22.9888 76.5712 24.1855 67.7976 27.3002 59.6302" stroke="white" stroke-width="2.52632"/>
<g clip-path="url(#clip0_1_533)">
<path fill-rule="evenodd" clip-rule="evenodd" d="M134.433 53.0427C134.386 53.8336 134.156 54.5553 133.74 55.2086C133.323 55.862 132.742 56.3746 131.995 56.7458C131.249 57.1177 130.484 57.2752 129.701 57.2183C128.919 57.162 128.198 56.9137 127.539 56.4739C126.881 56.0341 126.361 55.43 125.979 54.6624C125.597 53.8947 125.428 53.1155 125.475 52.3253C125.521 51.5345 125.756 50.8079 126.18 50.1441C126.604 49.4803 127.19 48.962 127.936 48.5909C128.683 48.2189 129.442 48.0643 130.214 48.1261C130.986 48.1879 131.703 48.4411 132.365 48.8864C133.025 49.3311 133.544 49.9325 133.921 50.6896C134.309 51.4677 134.479 52.2526 134.433 53.0427ZM131.981 51.6551C131.792 51.2769 131.539 50.9834 131.218 50.7755C130.898 50.5675 130.543 50.4549 130.155 50.4383C129.766 50.4225 129.372 50.5136 128.973 50.7123C128.573 50.9112 128.259 51.1722 128.033 51.4946C127.807 51.8169 127.68 52.1691 127.653 52.5502C127.626 52.9305 127.707 53.3102 127.896 53.689C128.089 54.0778 128.347 54.3789 128.67 54.5926C128.993 54.8061 129.35 54.917 129.741 54.9252C130.132 54.9341 130.527 54.8391 130.927 54.6403C131.327 54.4415 131.637 54.1816 131.859 53.862C132.08 53.5416 132.204 53.1913 132.231 52.8102C132.258 52.4291 132.175 52.0446 131.981 51.6551ZM127.166 47.0584C127.045 47.1515 126.916 47.2394 126.78 47.3215C126.643 47.4044 126.481 47.4871 126.294 47.5718L122.507 42.6559C122.401 42.7961 122.297 42.9367 122.224 43.0871C122.039 43.4737 121.976 43.8736 122.034 44.2874C122.092 44.7013 122.268 45.0993 122.562 45.4823C122.825 45.8271 123.124 46.0951 123.455 46.2849C123.786 46.4754 124.146 46.5837 124.536 46.6105L124.285 48.5124C123.652 48.4789 123.058 48.3017 122.501 47.9815C121.945 47.6605 121.456 47.2251 121.034 46.6752C120.491 45.9665 120.16 45.2214 120.041 44.4389C119.923 43.6565 120.006 42.9007 120.291 42.1716C120.576 41.4433 121.058 40.8174 121.739 40.2961C122.41 39.7818 123.129 39.4787 123.895 39.3875C124.661 39.2956 125.408 39.4008 126.135 39.7023C126.861 40.0032 127.478 40.4852 127.986 41.1469C128.486 41.7996 128.781 42.4875 128.869 43.212C128.958 43.9357 128.857 44.6343 128.566 45.3086C128.277 45.982 127.809 46.5656 127.166 47.0584ZM126.461 42.3158C126.183 41.9518 125.858 41.6971 125.488 41.5522C125.117 41.4066 124.73 41.3744 124.326 41.4548C124.174 41.4847 124.024 41.5359 123.873 41.5982L126.384 44.8545C126.516 44.6968 126.627 44.5377 126.71 44.3779C126.884 44.045 126.952 43.7045 126.915 43.3555C126.877 43.0074 126.726 42.6606 126.461 42.3158ZM115.589 40.2849L116.105 39.6974C115.789 39.7164 115.47 39.693 115.146 39.6147C114.604 39.4827 114.104 39.2161 113.646 38.8128C113.054 38.2933 112.652 37.6829 112.44 36.9809C112.228 36.2788 112.208 35.5579 112.381 34.8182C112.553 34.0786 112.915 33.3957 113.465 32.7691C114.023 32.1335 114.657 31.6823 115.369 31.4154C116.08 31.1486 116.795 31.0733 117.514 31.1889C118.233 31.3045 118.893 31.626 119.493 32.1526C119.952 32.556 120.283 33.0108 120.487 33.5181C120.609 33.823 120.667 34.1335 120.692 34.4462L123.981 30.7002L125.716 32.2232L117.31 41.796L115.589 40.2849ZM117.494 37.889C117.859 37.7486 118.192 37.5061 118.495 37.162C118.789 36.8263 118.982 36.4684 119.074 36.0884C119.166 35.7075 119.155 35.3381 119.04 34.9791C118.925 34.6202 118.709 34.3012 118.391 34.022C118.064 33.7358 117.714 33.5607 117.339 33.4975C116.964 33.4344 116.597 33.4709 116.235 33.6065C115.873 33.7428 115.545 33.9781 115.251 34.3138C114.949 34.6577 114.751 35.0205 114.66 35.4005C114.568 35.7814 114.581 36.1529 114.701 36.5157C114.82 36.8778 115.034 37.1949 115.343 37.4669C115.67 37.7531 116.019 37.9299 116.389 37.9979C116.759 38.0653 117.128 38.0287 117.494 37.889ZM114.79 26.5836C114.449 26.66 114.118 26.5914 113.796 26.3763C113.483 26.1676 113.294 25.8906 113.228 25.5432C113.163 25.1966 113.234 24.8668 113.443 24.5538C113.644 24.2511 113.92 24.0599 114.268 23.9812C114.617 23.9032 114.947 23.9682 115.26 24.1762C115.583 24.3913 115.773 24.6734 115.83 25.0216C115.887 25.3698 115.815 25.6961 115.613 25.9988C115.405 26.3118 115.13 26.5065 114.79 26.5836ZM109.285 35.2485L107.349 33.9594L112.066 26.8757L114.002 28.1647L109.285 35.2485ZM100.051 30.2222L100.567 16.9185L102.938 17.9605L102.433 27.238L108.955 20.6052L111.294 21.633L101.793 30.9874L100.051 30.2222ZM90.776 20.7383C90.606 20.6416 90.4053 20.5764 90.1725 20.5413C89.6846 20.4692 89.2636 20.5632 88.9096 20.825C88.5558 21.0874 88.3326 21.5321 88.2387 22.159L87.5446 26.8124L85.2614 26.4713L86.518 18.0541L88.8005 18.3953L88.6888 19.1438C88.6961 19.1364 88.7026 19.1275 88.7099 19.1208C89.2989 18.597 90.0638 18.4056 91.0052 18.5456C91.4114 18.6067 91.7674 18.7281 92.0731 18.9103C92.3782 19.0926 92.6417 19.3548 92.8644 19.696L91.1909 21.1212C91.0834 20.9624 90.9454 20.8349 90.776 20.7383ZM82.9236 24.6724C82.61 25.2421 82.1661 25.688 81.5905 26.0095C81.0149 26.3309 80.3508 26.4988 79.599 26.5124C78.8472 26.5259 78.1782 26.379 77.5908 26.0725C77.0041 25.7659 76.541 25.3335 76.2023 24.7761C75.8629 24.2179 75.687 23.5688 75.6733 22.8295L75.585 17.8961L77.9098 17.8545L77.9983 22.7348C78.0043 23.0871 78.0682 23.3881 78.1909 23.6383C78.3121 23.8895 78.4921 24.0766 78.7295 24.2013C78.9663 24.3268 79.2439 24.3865 79.5608 24.3807C80.0421 24.3716 80.4153 24.2185 80.6803 23.92C80.9453 23.6214 81.0729 23.2079 81.0631 22.6795L80.9754 17.7991L83.2833 17.758L83.3722 22.6906C83.3858 23.4424 83.2357 24.1028 82.9236 24.6724ZM72.0357 25.1498C71.6129 25.8556 71.0692 26.4615 70.403 26.9679C69.7368 27.4743 68.9649 27.8379 68.088 28.0579C67.2104 28.2787 66.3535 28.3244 65.5159 28.1959C64.6777 28.0675 63.906 27.7915 63.2003 27.3694C62.4946 26.9474 61.8873 26.3979 61.3781 25.7202C60.8683 25.0426 60.5055 24.2713 60.2875 23.4052C60.0702 22.5398 60.0242 21.694 60.1504 20.8693C60.2759 20.0446 60.5496 19.2791 60.9724 18.5733C61.3945 17.8677 61.9421 17.2635 62.6154 16.7615C63.2887 16.2595 64.063 15.8978 64.9407 15.6778C65.8291 15.4543 66.6893 15.4045 67.5198 15.5294C68.3502 15.6534 69.1186 15.9269 69.8243 16.3489C70.53 16.771 71.1364 17.3184 71.644 17.9896C72.1518 18.6615 72.5151 19.4305 72.7324 20.2967C72.9504 21.1621 72.9938 22.0111 72.8639 22.8428C72.7334 23.6754 72.4578 24.4441 72.0357 25.1498ZM70.3361 20.88C70.1871 20.2878 69.9599 19.7698 69.6543 19.3254C69.3494 18.8816 68.9808 18.5231 68.5485 18.2499C68.1169 17.9773 67.6428 17.8024 67.1271 17.7259C66.6114 17.6501 66.0628 17.685 65.4819 17.8305C64.7301 18.0198 64.1087 18.3544 63.6177 18.835C63.1267 19.3156 62.7946 19.8984 62.6222 20.5842C62.4489 21.2693 62.4628 22.0107 62.6631 22.8086C62.8148 23.4124 63.0476 23.9408 63.3617 24.3954C63.6758 24.8492 64.0447 25.2106 64.47 25.4795C64.8945 25.7484 65.3674 25.9197 65.8889 25.9949C66.4105 26.0701 66.9504 26.0369 67.5089 25.8967C68.283 25.702 68.912 25.3622 69.3959 24.8772C69.8798 24.3922 70.2087 23.8075 70.3811 23.1218C70.5544 22.4367 70.5391 21.6894 70.3361 20.88ZM52.1095 32.4465C52.5269 32.4341 52.9424 32.303 53.3545 32.0533C53.7258 31.8281 54.0246 31.562 54.2501 31.2538C54.4756 30.9455 54.623 30.5985 54.6917 30.2136L56.5549 30.6716C56.4527 31.2965 56.2116 31.8679 55.8319 32.3865C55.452 32.9044 54.966 33.3431 54.3731 33.7019C53.6098 34.1643 52.8326 34.4117 52.0422 34.4443C51.2511 34.4769 50.5092 34.3113 49.8159 33.9485C49.1226 33.5856 48.5538 33.0378 48.1095 32.3043C47.6714 31.5804 47.4486 30.833 47.4417 30.0612C47.435 29.2902 47.6209 28.5594 47.9997 27.8695C48.3785 27.1804 48.925 26.6199 49.6384 26.1873C50.3415 25.7618 51.0577 25.5447 51.7872 25.5358C52.5159 25.527 53.1999 25.7033 53.8384 26.0648C54.4763 26.4278 55.0051 26.9549 55.4251 27.6482C55.5037 27.7792 55.5771 27.9167 55.6439 28.0615C55.7114 28.2062 55.7758 28.3765 55.8392 28.5711L50.531 31.8031C50.6597 31.9264 50.7937 32.0373 50.9371 32.1265C51.3009 32.3526 51.6915 32.4598 52.1095 32.4465ZM53.1493 28.1851C53.0066 28.0353 52.8607 27.9095 52.7101 27.8085C52.3984 27.5996 52.0672 27.4948 51.7163 27.494C51.3661 27.4932 51.0047 27.6058 50.6327 27.8304C50.2407 28.0683 49.9524 28.3627 49.7679 28.7152C49.5826 29.0671 49.5084 29.4489 49.5444 29.8593C49.5573 30.0108 49.6023 30.1654 49.6465 30.3201L53.1493 28.1851ZM43.0489 38.4005C43.4483 38.5548 43.8528 38.5866 44.2609 38.4954C44.669 38.405 45.0519 38.1984 45.4103 37.8764C45.733 37.5863 45.9767 37.2679 46.1406 36.9235C46.3045 36.5784 46.3839 36.2108 46.3795 35.8191L48.296 35.9205C48.3121 36.5538 48.182 37.1604 47.9064 37.74C47.6302 38.3204 47.2345 38.8423 46.7194 39.3056C46.0558 39.9025 45.3383 40.2912 44.5677 40.4707C43.7971 40.6503 43.0376 40.627 42.2883 40.4002C41.539 40.1735 40.878 39.7413 40.3045 39.1032C39.7387 38.4745 39.3801 37.7819 39.2293 37.0251C39.078 36.2691 39.1242 35.5167 39.3673 34.7685C39.6105 34.0204 40.0427 33.3668 40.6626 32.8093C41.2738 32.2594 41.9367 31.9122 42.652 31.7668C43.3665 31.6214 44.0709 31.667 44.7651 31.9034C45.4601 32.1398 46.0784 32.5596 46.6199 33.1622C46.7224 33.2758 46.8199 33.3973 46.9131 33.5267C47.0055 33.6562 47.1015 33.8111 47.2002 33.9908L42.5896 38.1583C42.7391 38.2557 42.8915 38.3395 43.0489 38.4005ZM44.4855 34.1142C44.3173 33.9945 44.1495 33.8984 43.9837 33.8271C43.6382 33.6803 43.2932 33.639 42.9481 33.7041C42.6043 33.769 42.27 33.9466 41.9473 34.2375C41.6064 34.5436 41.3781 34.8876 41.2624 35.268C41.1467 35.6485 41.1449 36.0372 41.257 36.434C41.2981 36.5802 41.3714 36.7236 41.4432 36.8672L44.4855 34.1142ZM39.8558 46.757C39.2531 47.5534 38.6015 48.132 37.9017 48.4936C37.2012 48.8546 36.4053 49.0598 35.5146 49.107L35.2067 46.8859C35.8109 46.8863 36.3629 46.7742 36.8649 46.5495C37.3662 46.3248 37.8259 45.9362 38.244 45.3831C38.6195 44.8864 38.8206 44.4161 38.8467 43.9723C38.8734 43.5285 38.713 43.1753 38.3667 42.9133C38.0672 42.6868 37.7594 42.5868 37.4447 42.6131C37.1293 42.6402 36.8023 42.7425 36.4619 42.9193C36.1217 43.0968 35.7721 43.3108 35.4126 43.5621C35.0531 43.8134 34.6774 44.0517 34.2856 44.2777C33.8931 44.5045 33.4872 44.6759 33.0679 44.7927C32.6479 44.9095 32.2081 44.9266 31.7478 44.844C31.2875 44.7607 30.8041 44.5277 30.2984 44.1451C29.6994 43.6921 29.2986 43.1607 29.0961 42.5514C28.8943 41.942 28.8727 41.2988 29.0306 40.6228C29.1879 39.9468 29.5075 39.2907 29.9896 38.6538C30.5 37.9791 31.0871 37.4659 31.751 37.1141C32.4148 36.7616 33.0794 36.5648 33.7447 36.5231L34.0526 38.7442C33.5145 38.7941 33.055 38.9146 32.6748 39.1053C32.2947 39.2961 31.9598 39.5838 31.6687 39.9679C31.3358 40.4083 31.1584 40.8184 31.135 41.1991C31.1124 41.5797 31.2609 41.8907 31.5789 42.1314C31.8511 42.3372 32.1348 42.4192 32.4308 42.3779C32.7269 42.3367 33.0403 42.2241 33.3717 42.0401C33.7023 41.8555 34.0495 41.6396 34.4138 41.3922C34.7775 41.1449 35.1555 40.9078 35.5481 40.6817C35.9399 40.4557 36.353 40.2887 36.7867 40.1829C37.2204 40.0764 37.677 40.0715 38.1559 40.169C38.6348 40.2659 39.1319 40.5099 39.6472 40.8996C40.5651 41.5939 41.0419 42.4627 41.0778 43.506C41.1136 44.5493 40.7063 45.633 39.8558 46.757Z" fill="white"/>
</g>
<defs>
<clipPath id="clip0_1_533">
<rect width="104.252" height="49.1891" fill="white" transform="translate(26.0888 19.3569) rotate(-6.24175)"/>
</clipPath>
</defs>
</svg>
