<svg width="802" height="207" viewBox="0 0 802 207" fill="none" xmlns="http://www.w3.org/2000/svg">
<path opacity="0.5" d="M2.6503 249.708C-8.33438 209.423 22.7135 169.216 57.7389 155.119C89.1108 142.476 127.287 143.186 174.387 157.297C188.494 161.508 202.543 166.562 216.143 171.427C238.943 179.593 262.564 188.064 286.683 192.788C312.73 197.854 361.785 202.03 397.802 172.886C417.199 157.198 430.014 133.85 442.339 111.263C458.456 81.8424 475.074 51.4619 506.445 39.4774C539.203 26.9589 573.831 39.7968 607.374 52.1977C616.407 55.5487 625.811 59.0146 634.847 61.8601C635.172 61.9606 635.497 62.0611 635.869 62.1759C720.066 88.2162 817.711 63.5395 879.07 0.63334L881.176 2.70342C819.052 66.4372 720.246 91.4137 634.982 65.0432C634.657 64.9427 634.332 64.8422 633.961 64.7274C624.831 61.8532 615.427 58.3873 606.301 55.0076C573.315 42.7789 539.23 30.1595 507.462 42.2747C477.126 53.87 461.466 82.4693 444.878 112.757C432.373 135.593 419.487 159.173 399.622 175.223C362.669 205.09 312.6 200.905 286.043 195.68C261.723 190.946 238.009 182.446 215.084 174.191C201.485 169.326 187.436 164.271 173.468 160.104C127.017 146.193 89.5166 145.439 58.784 157.823C24.9158 171.468 -5.10664 210.167 5.44307 248.9L2.6503 249.708Z" fill="white"/>
</svg>
