<svg width="731" height="278" viewBox="0 0 731 278" fill="none" xmlns="http://www.w3.org/2000/svg">
<path opacity="0.1" d="M616.919 113.952C579.219 138.34 530.192 144.356 487.749 129.747C449.721 116.653 383.071 64.7248 337.438 102.985C315.03 121.768 312.658 154.872 299.778 181.184C253.982 274.687 139.572 223.004 69.8957 237.531C-18.0174 255.863 -22.1882 348.998 52.8037 384.967C87.2738 401.499 127.141 400.844 165.292 399.207C326.07 392.333 486.358 374.287 644.602 345.151C771.483 321.827 816.666 278.533 797.939 113.297C793.277 72.2132 773.078 -16.6656 711.252 2.73062C673.388 14.6384 677.355 74.8321 616.919 113.952Z" fill="white"/>
</svg>
