<svg width="389" height="258" viewBox="0 0 389 258" fill="none" xmlns="http://www.w3.org/2000/svg">
<path opacity="0.1" d="M81.557 196.295C110.495 196.501 138.136 206.817 165.301 216.226C192.509 225.634 221.058 234.424 249.824 231.329C278.546 228.234 307.528 210.118 313.194 183.049C317.563 162.292 307.874 141.495 300.088 121.646C292.345 101.798 286.592 78.5244 297.882 60.2853C307.787 44.2745 327.599 37.1356 343.863 26.9019C365.448 13.3257 382.275 -7.8845 387.422 -32.0658C392.57 -56.2471 385.043 -83.1518 366.01 -99.8642C346.502 -117.03 317.866 -121.817 291.436 -119.424C265.007 -117.03 239.702 -108.406 214.008 -101.927C168.718 -90.5383 121.612 -85.7515 74.809 -87.8973C44.9621 -89.2591 14.899 -93.3856 -14.6883 -89.2591C-44.2756 -85.1326 -74.3387 -70.9787 -87.5751 -45.3944C-102.672 -16.2613 -92.2901 18.8139 -78.275 48.4835C-64.3033 78.1118 -46.5249 107.946 -47.2603 140.463C-47.6063 155.236 -51.8022 169.638 -54.8734 184.122C-57.9446 198.606 -59.8046 213.791 -55.5222 227.986C-51.2399 242.181 -39.5607 255.18 -24.2912 257.573C1.53281 261.535 4.34447 236.982 16.5427 222.704C32.0718 204.506 57.4632 196.13 81.557 196.295Z" fill="white"/>
</svg>
